<svg width="450" height="450" viewBox="0 0 450 450" fill="none" xmlns="http://www.w3.org/2000/svg">
<g clip-path="url(#clip0_20_71)">
<path d="M224.934 443.753C195.694 443.753 167.234 437.968 140.339 426.563C114.324 415.528 90.914 399.753 70.759 379.667C50.569 359.542 34.704 336.143 23.604 310.123C12.094 283.128 6.25403 254.488 6.24903 224.997C6.24403 195.462 12.024 166.818 23.429 139.852C34.444 113.807 50.219 90.4125 70.314 70.3175C90.409 50.2275 113.804 34.4525 139.854 23.4325C166.819 12.0275 195.469 6.24248 225.004 6.24248C254.539 6.24248 283.184 12.0275 310.149 23.4325C336.199 34.4475 359.589 50.2225 379.684 70.3175C399.774 90.4075 415.549 113.802 426.564 139.852C437.969 166.818 443.754 195.462 443.754 224.997C443.754 254.533 437.969 283.178 426.564 310.137C415.549 336.183 399.774 359.572 379.684 379.662C359.594 399.753 336.199 415.523 310.149 426.543C283.184 437.948 254.539 443.738 225.004 443.748H224.934V443.753Z" fill="black"/>
<path d="M225 12.501C253.695 12.501 281.52 18.116 307.71 29.196C333.015 39.896 355.74 55.221 375.26 74.741C394.78 94.261 410.105 116.986 420.805 142.291C431.88 168.481 437.5 196.311 437.5 225.001C437.5 253.691 431.885 281.521 420.805 307.706C410.105 333.006 394.78 355.731 375.26 375.246C355.74 394.761 333.015 410.086 307.71 420.791C281.52 431.871 253.69 437.491 225 437.501H224.935C196.54 437.501 168.895 431.886 142.78 420.811C117.505 410.091 94.755 394.761 75.175 375.241C55.555 355.686 40.14 332.951 29.36 307.671C18.18 281.456 12.51 253.641 12.505 224.996C12.5 196.306 18.115 168.476 29.19 142.286C39.89 116.986 55.215 94.256 74.735 74.736C94.255 55.216 116.985 39.891 142.29 29.191C168.48 18.116 196.31 12.501 225 12.501ZM225 0.000961304C100.735 0.000961304 -0.019997 100.736 2.977e-06 225.001C0.020003 349.251 101.925 450.001 224.935 450.001C224.95 450.001 224.985 450.001 225 450.001C349.265 449.966 450 349.266 450 225.001C450 100.736 349.265 0.000961304 225 0.000961304Z" fill="white"/>
<path d="M225.001 143.753C246.706 143.753 267.106 152.203 282.451 167.553C297.796 182.898 306.251 203.303 306.251 225.003C306.251 246.703 297.801 267.108 282.451 282.453C267.106 297.798 246.701 306.253 225.001 306.253C203.301 306.253 182.896 297.803 167.551 282.453C152.206 267.108 143.751 246.703 143.751 225.003C143.751 203.303 152.201 182.898 167.551 167.553C182.896 152.203 203.301 143.753 225.001 143.753ZM225.001 131.253C173.226 131.253 131.251 173.228 131.251 225.003C131.251 276.778 173.226 318.753 225.001 318.753C276.776 318.753 318.751 276.778 318.751 225.003C318.751 173.223 276.781 131.253 225.001 131.253Z" fill="white"/>
<path d="M224.75 450.003C160.73 450.738 96.6904 412.953 71.8904 352.948C36.7354 269.498 77.1904 174.388 162.445 143.123C182.34 135.638 203.58 131.978 224.75 131.978V143.533C141.62 143.083 70.7104 205.668 71.3604 290.638C70.6454 351.108 110.125 406.458 166.72 427.053C185.18 434.048 204.96 437.503 224.75 437.503V450.003Z" fill="white"/>
<path d="M225.75 0.00286971C315.335 -0.51213 391.375 68.3479 391.02 159.488C391.745 251.133 315.415 318.838 225.75 318.163V306.343C245.58 306.308 265.385 302.873 283.885 295.908C362.915 266.933 399.675 179.118 367.15 102.033C344.145 46.5929 285.02 11.7329 225.75 12.5029V0.00286971Z" fill="white"/>
</g>
<defs>
<clipPath id="clip0_20_71">
<rect width="450" height="450" fill="white"/>
</clipPath>
</defs>
</svg>
